<?xml version="1.0"?>
<svg width="700" height="100" xmlns="http://www.w3.org/2000/svg">
 <!-- Created with Method Draw - http://github.com/duopixel/Method-Draw/ -->
 <g>
  <title>background</title>
  <rect fill="none" id="canvas_background" height="102" width="702" y="-1" x="-1"/>
  <g display="none" overflow="visible" y="0" x="0" height="100%" width="100%" id="canvasGrid">
   <rect fill="url(#gridpattern)" stroke-width="0" y="0" x="0" height="100%" width="100%"/>
  </g>
 </g>
 <g>
  <title>Layer 1</title>
  <ellipse ry="27" rx="27" id="svg_1" cy="49.75" cx="70.5" stroke-width="3" stroke="#fff" fill="#4c4c4c"/>
  <ellipse ry="27" rx="27" id="svg_2" cy="49.75" cx="162.5" stroke-width="3" stroke="#fff" fill="#4c4c4c"/>
  <ellipse ry="27" rx="27" id="svg_3" cy="49.75" cx="254.5" stroke-width="3" stroke="#fff" fill="#4c4c4c"/>
  <line stroke-linecap="null" stroke-linejoin="null" id="svg_4" y2="49.75" x2="135.269553" y1="49.75" x1="98.5" stroke-width="1.5" stroke="#ffffff" fill="none"/>
  <line stroke="#ffffff" stroke-linecap="null" stroke-linejoin="null" id="svg_5" y2="49.75" x2="226.269553" y1="49.75" x1="189.5" stroke-width="1.5" fill="none"/>
  <text xml:space="preserve" text-anchor="left" font-family="Helvetica, Arial, sans-serif" font-size="24" id="svg_6" y="57.75" x="63.820313" stroke-width="0" stroke="#000" fill="#ffffff">1</text>
  <text xml:space="preserve" text-anchor="left" font-family="Helvetica, Arial, sans-serif" font-size="24" id="svg_7" y="57.75" x="155.820313" stroke-width="0" stroke="#000" fill="#ffffff">2</text>
  <text xml:space="preserve" text-anchor="left" font-family="Helvetica, Arial, sans-serif" font-size="24" id="svg_8" y="57.75" x="247.820313" stroke-opacity="null" stroke-width="0" stroke="#000" fill="#ffffff">3</text>
  <path id="svg_9" d="m355.556427,63.040848l8.182251,-8.208992l-15.818085,0l-15.818146,0l0,-5.081856l0,-5.081917l15.637024,0c8.59964,0 15.635498,-0.257523 15.635498,-0.572269c0,-0.3148 -3.423492,-4.008942 -7.607544,-8.209141l-7.607483,-7.636673l7.031158,0l7.032745,0l10.739594,10.760338l10.739685,10.760124l-10.760101,10.739861l-10.760132,10.739677l-7.404388,0l-7.402771,0l8.180695,-8.209152l0,0z" stroke-width="3" stroke="#fff" fill="#4c4c4c"/>
  <rect id="svg_10" height="48" width="48" y="25.75" x="437.5" stroke-width="3" stroke="#fff" fill="#4c4c4c"/>
  <rect id="svg_11" height="48" width="48" y="25.75" x="523.5" stroke-width="3" stroke="#fff" fill="#4c4c4c"/>
  <rect id="svg_25" height="48" width="48" y="25.75" x="611.5" stroke-width="3" stroke="#fff" fill="#4c4c4c"/>
  <line stroke="#ffffff" stroke-linecap="null" stroke-linejoin="null" id="svg_27" y2="49.75" x2="524.269553" y1="49.75" x1="487.5" stroke-width="1.5" fill="none"/>
  <line stroke="#ffffff" stroke-linecap="null" stroke-linejoin="null" id="svg_28" y2="49.75" x2="610.269553" y1="49.75" x1="573.5" stroke-width="1.5" fill="none"/>
  <text style="cursor: move;" xml:space="preserve" text-anchor="left" font-family="Helvetica, Arial, sans-serif" font-size="24" id="svg_29" y="57.75" x="454.820313" stroke-opacity="null" stroke-width="0" stroke="#000" fill="#ffffff">2</text>
  <text style="cursor: move;" stroke="#000" xml:space="preserve" text-anchor="left" font-family="Helvetica, Arial, sans-serif" font-size="24" id="svg_30" y="57.75" x="540.820313" stroke-opacity="null" stroke-width="0" fill="#ffffff">4</text>
  <text style="cursor: move;" xml:space="preserve" text-anchor="left" font-family="Helvetica, Arial, sans-serif" font-size="24" id="svg_31" y="57.75" x="628.820313" stroke-opacity="null" stroke-width="0" stroke="#000" fill="#ffffff">6</text>
 </g>
</svg>