<?xml version="1.0" encoding="UTF-8" standalone="no"?>
<svg width="286px" height="633px" viewBox="0 0 286 633" version="1.1" xmlns="http://www.w3.org/2000/svg" xmlns:xlink="http://www.w3.org/1999/xlink" xmlns:sketch="http://www.bohemiancoding.com/sketch/ns">
    <!-- Generator: Sketch 3.3.2 (12043) - http://www.bohemiancoding.com/sketch -->
    <title>gulp</title>
    <desc>Created with Sketch.</desc>
    <defs></defs>
    <g id="Page-1" stroke="none" stroke-width="1" fill="none" fill-rule="evenodd" sketch:type="MSPage">
        <g id="gulp" sketch:type="MSLayerGroup" transform="translate(0.000000, -2.000000)">
            <g id="g3012" transform="translate(143.125000, 318.250000) scale(1, -1) translate(-143.125000, -318.250000) translate(0.000000, 0.750000)" sketch:type="MSShapeGroup">
                <g id="g3014">
                    <g id="g3016">
                        <g id="g3022" transform="translate(39.149125, 0.225875)" fill="#E34E48">
                            <path d="M181.25,20 C181.25,9.47875 146.55,0.95 103.7475,0.95 C60.9425,0.95 26.24375,9.47875 26.24375,20 L19.60625,118.1425 L0.84375,149.31625 C0.84375,149.31625 38.36875,134.0175 102.16,134.0175 C165.95125,134.0175 204.05375,149.605 204.05375,149.605 L187.3125,121.0275 L181.25,20 L181.25,20 Z" id="path3024"></path>
                        </g>
                        <g id="g3026" transform="translate(1.853000, 139.951750)" fill="#E34E48">
                            <path d="M0,322.5 L31.13375,22.4275 C31.13375,22.4275 57.96125,1.23125 138.775,1.23125 C219.58875,1.23125 247.41,22.09625 247.41,22.09625 L280.86125,322.83125 C280.86125,322.83125 261.65125,306.93375 139.4375,306.93375 C17.2225,306.93375 0,322.5 0,322.5" id="path3028"></path>
                        </g>
                        <g id="g3030" transform="translate(0.416250, 453.750000)" fill="#E34E48">
                            <path d="M285,20 C285,8.955 221.3,0 142.7225,0 C64.14375,0 0.4425,8.955 0.4425,20 C0.4425,31.045 64.14375,40 142.7225,40 C221.3,40 285,31.045 285,20" id="path3032"></path>
                        </g>
                        <g id="g3034" transform="translate(165.120875, 462.589125)" fill="#FFFFFF">
                            <path d="M28.75,1.25 C31.14625,1.575 34.84,2.01625 34.85625,4.91875 C34.85875,6.625 33.42375,7.6125 31.77875,8.1225 L30.55625,6.21 C31.565,5.96875 32.145,5.6625 32.145,5.3375 C32.13875,4.2625 24.47,3.74 18.12375,3.66125 C11.7775,3.58125 3.48125,4.3275 3.48625,5.4175 C3.4875,5.65 3.7925,5.8675 4.32625,6.0525 L3.09875,7.97875 C1.8,7.44875 0.78125,6.6025 0.775,5.1675 C0.77125,4.41375 1.10875,3.3 1.725,2.73875 C4.01875,0.65 9.7775,0.56375 17.88625,0.5975 C25.99375,0.63125 28.75,1.25 28.75,1.25" id="path3036"></path>
                        </g>
                        <g id="g3038" transform="translate(264.334750, 615.068375)" fill="#E34E48">
                            <path d="M20,1.25 C18.22625,-0.79875 12.66125,1.11875 7.5725,5.5275 C2.48125,9.935 -0.20875,15.17 1.56375,17.21625 C3.33875,19.26375 8.9025,17.34875 13.99375,12.94125 C19.0825,8.53125 21.77125,3.29625 20,1.25" id="path3040"></path>
                        </g>
                        <g id="g3042" transform="translate(175.898500, 491.034500)" fill="#E34E48">
                            <path d="M90,141.25 L15.39,62.2575 L0.54875,1.89625 L25.33125,0.80125 L38.10125,51.275 L108.57375,125.43 L90,141.25 L90,141.25 Z" id="path3044"></path>
                        </g>
                        <g id="g3046" transform="translate(17.793000, 238.457000)" fill="#FFFFFF">
                            <path d="M5,21.25 C24.48125,11.60125 39.7075,30.9175 47.9675,38.5375 C48.48375,33.36 34.195,3.81375 42.9675,1.0375 C51.73875,-1.73875 55.4175,22.40375 62.415,45.2925 C68.645,65.675 77.98875,88.73 69.395,91.07375 C60.80125,93.4175 58.14625,71.0775 54.2175,63.5375 C48.63875,52.83375 15.665,16.78125 11.7175,43.5375 C8.62,64.52375 32.06625,106.6175 42.9675,117.2875 C48.43375,122.63875 56.8925,127.5775 62.9675,126.0375 C71.38625,123.905 72.10875,109.3825 79.2175,109.7875 C96.015,110.74625 76.40625,139.03 61.7175,139.7875 C29.2225,141.4625 8.68,91.22625 0.15,66.87375 C-0.4475,59.3675 5,21.25 5,21.25" id="path3048"></path>
                        </g>
                        <g id="g3050" transform="translate(94.583750, 217.500000)" fill="#FFFFFF">
                            <path d="M167.5,57.5 C157.56375,47.56875 124.5225,29.325 122.425,49.495 C120.755,65.56375 157.575,88.8375 148.125,89.5825 C127.78375,88.42 117.66,65.74375 107.425,41.995 C103.675,33.29125 90.84125,-3.82375 82.425,0.745 C74.01,5.3125 93.33375,35.8325 98.75,53.9575 C92.5,49.375 69.58125,31.56875 63.675,48.245 C54.17875,40.18 33.8875,35.81 36.17625,56.995 C31.125,48.04625 19.78625,35.55375 6.17625,40.745 C-11.69625,47.56125 16.5325,104.49375 23.5525,101.62125 C30.5725,98.75 22.135,85.78125 19.92625,80.745 C15.06625,69.66125 9.4525,55.7275 13.2025,52.875 C19.6275,47.98875 37.11125,71.36125 37.5,71.875 C40.77,76.195 50.08625,104.45875 57.595,101.21375 C65.10375,97.96875 38.86625,60.65125 48.67625,53.245 C50.655,51.75 58.75,54.16625 63.675,59.495 C66.86125,62.94125 65.765,70.575 76.38625,95.90375 C87.0075,121.23125 96.47375,152.77375 103.7575,150.37125 C111.04125,147.96875 105.0375,131.78 102.425,125.745 C90.1625,97.42 68.9575,50.62375 78.9575,54.16625 C88.9575,57.70875 94.165,57.91625 103.9575,69.375 C113.75,80.83375 113.2975,99.70875 119.825,99.3075 C126.35375,98.90625 125.2575,92.85375 123.675,88.245 C130.09875,95.59625 154.125,111.07875 159.925,95.745 C166.79625,77.5925 125.55,51.37 135.83375,52.7075 C146.1175,54.045 162.97125,64.83625 169.5825,74.375 C169.5975,74.395 167.5,57.5 167.5,57.5" id="path3052"></path>
                        </g>
                    </g>
                </g>
            </g>
        </g>
    </g>
</svg>